# This file uses centimeters as units for non-parametric coordinates.

mtllib barrel3.mtl
g default
v 0.895996 31.539050 29.388660
v 0.895996 31.539050 27.596669
v 0.000000 32.435046 27.596669
v 0.000000 32.435046 29.388660
v 0.895996 31.539050 29.388660
v 0.000000 30.643054 29.388660
v 0.000000 30.643054 27.596669
v 0.895996 31.539050 27.596669
v 0.000000 32.136382 29.687326
v 0.597330 31.539050 29.926258
v 0.000000 32.435046 29.388660
v -0.895996 31.539050 29.388660
v -0.597330 31.539050 29.926258
v 0.000000 32.136382 29.687326
v 0.000000 32.435046 27.596669
v -0.895996 31.539050 27.596669
v 0.597330 31.539050 29.926258
v 0.000000 30.941718 30.284656
v -0.597330 31.539050 29.926258
v 0.000000 30.941718 30.284656
v -0.895996 31.539050 29.388660
v 0.000000 30.643054 29.388660
v 0.000000 30.941718 30.284656
v -0.597330 31.539050 29.926258
v -0.895996 31.539050 27.596669
v 0.000000 30.643054 27.596669
v 0.597330 31.539050 27.298003
v 0.000000 32.136382 27.298003
v 0.000000 32.136382 27.298003
v -0.597330 31.539050 27.298003
v 0.000000 30.941718 27.298003
v 0.597330 31.539050 27.298003
v -0.597330 31.539050 27.298003
v 0.000000 30.941718 27.298003
v 0.597330 31.539050 24.908682
v 0.000000 32.136382 24.908682
v 0.000000 30.941718 24.908682
v 0.597330 31.539050 24.908682
v 0.000000 32.136382 24.908682
v -0.597330 31.539050 24.908682
v 0.000000 30.941718 24.908682
v -0.597330 31.539050 24.908682
vt 0.856217 0.520525
vt 0.834544 0.521815
vt 0.834180 0.507497
vt 0.854699 0.506851
vt 0.858750 0.536418
vt 0.834688 0.538289
vt 0.859467 0.506565
vt 0.864329 0.519860
vt 0.854449 0.493785
vt 0.861555 0.493933
vt 0.834037 0.493469
vt 0.871110 0.530513
vt 0.905048 0.476025
vt 0.915455 0.491015
vt 0.901032 0.503501
vt 0.890788 0.487409
vt 0.856177 0.479118
vt 0.867390 0.484107
vt 0.833946 0.477852
vt 0.829286 0.521674
vt 0.829115 0.507599
vt 0.829015 0.493723
vt 0.829193 0.535481
vt 0.828901 0.480377
vt 0.787814 0.522029
vt 0.787397 0.507315
vt 0.788188 0.536539
vt 0.788114 0.492847
vt 0.788732 0.478637
vt 0.856217 0.520525
vt 0.834544 0.521815
vt 0.854699 0.506851
vt 0.859467 0.506565
vt 0.854699 0.506851
vt 0.834180 0.507497
vt 0.864329 0.519860
vt 0.856217 0.520525
vt 0.854449 0.493785
vt 0.861555 0.493933
vt 0.854449 0.493785
vt 0.834037 0.493469
vt 0.834180 0.507497
vt 0.829115 0.507599
vt 0.829286 0.521674
vt 0.834544 0.521815
vt 0.834037 0.493469
vt 0.829015 0.493723
vt 0.829286 0.521674
vt 0.787814 0.522029
vt 0.787397 0.507315
vt 0.829115 0.507599
vt 0.829015 0.493723
vt 0.788114 0.492847
vn 0.707107 0.707107 0.000000
vn 0.707107 0.707107 0.000000
vn 0.707107 0.707107 0.000000
vn 0.707107 0.707107 0.000000
vn 0.734000 -0.670979 0.105033
vn 0.734000 -0.670979 0.105033
vn 0.673888 -0.673887 -0.302903
vn 0.673888 -0.673887 -0.302903
vn 0.589017 0.728733 0.349295
vn 0.157371 0.572296 0.804805
vn 0.157371 0.572296 0.804805
vn 0.589017 0.728733 0.349295
vn -0.694759 0.694759 0.186067
vn -0.694759 0.694759 0.186067
vn -0.658145 0.658145 0.365636
vn -0.658145 0.658145 0.365636
vn -0.694759 0.694759 0.186067
vn -0.673888 0.673887 -0.302903
vn -0.673888 0.673887 -0.302903
vn -0.694759 0.694759 0.186067
vn 0.751306 -0.626087 0.208695
vn 0.751306 -0.626087 0.208695
vn 0.734000 -0.670979 0.105033
vn 0.734000 -0.670979 0.105033
vn 0.157371 0.572296 0.804805
vn -0.089088 0.445434 0.890872
vn -0.089088 0.445434 0.890872
vn 0.157371 0.572296 0.804805
vn -0.702376 -0.702376 0.115480
vn -0.702376 -0.702376 0.115480
vn -0.688247 -0.688247 0.229414
vn -0.688247 -0.688247 0.229414
vn -0.702376 -0.702376 0.115480
vn -0.673888 -0.673887 -0.302905
vn -0.673888 -0.673887 -0.302905
vn -0.702376 -0.702376 0.115480
vn 0.673888 0.673887 -0.302905
vn 0.673889 0.673886 -0.302905
vn 0.673889 0.673886 -0.302905
vn 0.673888 0.673887 -0.302905
vn -0.673888 0.673887 -0.302903
vn -0.673889 0.673887 -0.302903
vn -0.673889 0.673887 -0.302903
vn -0.673888 0.673887 -0.302903
vn 0.673888 -0.673887 -0.302903
vn 0.673889 -0.673887 -0.302903
vn 0.673889 -0.673887 -0.302903
vn 0.673888 -0.673887 -0.302903
vn -0.673888 -0.673887 -0.302905
vn -0.673889 -0.673886 -0.302905
vn -0.673889 -0.673886 -0.302905
vn -0.673888 -0.673887 -0.302905
vn 0.673889 0.673886 -0.302905
vn 0.707108 0.707106 0.000000
vn 0.707108 0.707106 0.000000
vn 0.673889 0.673886 -0.302905
vn 0.673889 -0.673887 -0.302903
vn 0.673889 -0.673887 -0.302903
vn 0.707108 -0.707106 0.000000
vn 0.707108 -0.707106 0.000000
vn -0.707108 0.707106 0.000000
vn -0.707108 0.707106 0.000000
vn -0.673889 0.673887 -0.302903
vn -0.673889 0.673887 -0.302903
vn -0.707108 -0.707106 0.000000
vn -0.673889 -0.673886 -0.302905
vn -0.673889 -0.673886 -0.302905
vn -0.707108 -0.707106 0.000000
s off
g Obj_000001_sep62_Obj_000001_auv
usemtl lambert2SG
f 1/1/1 2/2/2 3/3/3 4/4/4
f 5/30/5 6/5/6 7/6/7 8/31/8
f 4/4/9 9/7/10 10/8/11 1/1/12
f 11/32/13 12/9/14 13/10/15 14/33/16
f 11/34/17 15/35/18 16/11/19 12/9/20
f 17/36/21 18/12/22 6/5/23 5/37/24
f 9/13/25 19/14/26 20/15/27 10/16/28
f 21/38/29 22/17/30 23/18/31 24/39/32
f 21/40/33 25/41/34 26/19/35 22/17/36
f 2/2/37 27/20/38 28/21/39 3/3/40
f 15/42/41 29/43/42 30/22/43 16/11/44
f 7/6/45 31/23/46 32/44/47 8/45/48
f 25/46/49 33/47/50 34/24/51 26/19/52
f 27/20/53 35/25/54 36/26/55 28/21/56
f 32/48/57 31/23/58 37/27/59 38/49/60
f 39/50/61 40/28/62 30/22/63 29/51/64
f 41/29/65 34/24/66 33/52/67 42/53/68
