# This file uses centimeters as units for non-parametric coordinates.

mtllib lleg1.mtl
g default
v -11.212268 23.657381 -13.903125
v -11.212268 32.793438 -12.364741
v -11.212268 32.255840 -8.959957
v -11.212268 24.015779 -9.602345
v -11.212268 32.255840 -8.959956
v -9.778675 32.255840 -8.959956
v -9.778675 24.015779 -9.602345
v -11.212268 24.015779 -9.602345
v -9.778675 23.657383 -13.903124
v -9.778675 32.793442 -12.364740
v -11.212268 32.793442 -12.364740
v -11.212268 23.657383 -13.903124
v -9.778675 24.015781 -9.602345
v -9.778675 32.255844 -8.959957
v -9.778675 32.793442 -12.364741
v -9.778675 23.657383 -13.903125
v -11.570665 32.793442 -12.543940
v -9.778675 32.793442 -12.543940
v -9.778675 37.631821 -12.543940
v -12.108263 37.631821 -12.543940
v -11.570667 32.793442 -12.543939
v -11.570667 32.076649 -8.601557
v -9.778675 32.076649 -8.601557
v -9.778675 32.793442 -12.543939
v -12.108263 37.631821 -12.543941
v -12.108263 35.481430 -7.705563
v -11.570665 32.076649 -8.601559
v -11.570665 32.793442 -12.543941
v -12.108265 37.631821 -12.543941
v -9.778675 37.631821 -12.543941
v -9.778675 35.481430 -7.705564
v -12.108265 35.481430 -7.705564
v -9.778675 32.793438 -12.543940
v -9.778675 32.076645 -8.601558
v -9.778675 35.481426 -7.705562
v -9.778675 37.631817 -12.543940
v -9.778675 35.481434 -7.705563
v -9.778675 32.076653 -8.601559
v -11.570667 32.076649 -8.601559
v -12.108265 35.481430 -7.705563
v -11.212267 37.631824 -6.759604
v -11.212267 39.644726 -7.565357
v -7.807483 39.644726 -7.565358
v -7.807483 37.631824 -6.759604
v -11.212267 37.631821 -6.759604
v -11.212267 35.520424 -7.663854
v -11.212267 34.714668 -9.676755
v -11.212267 35.618919 -11.788153
v -11.212267 37.631821 -12.593906
v -11.212267 39.743217 -11.689655
v -11.212267 40.548973 -9.676755
v -11.212267 39.644722 -7.565357
v -7.807483 37.631821 -6.759603
v -7.807483 35.520424 -7.663853
v -11.212268 35.520424 -7.663854
v -11.212268 37.631817 -6.759603
v -11.212267 39.644726 -7.565357
v -11.212267 40.548977 -9.676755
v -7.807483 40.548977 -9.676755
v -7.807483 39.644726 -7.565357
v -7.807481 39.644718 -7.565356
v -7.807481 40.548969 -9.676754
v -7.807483 39.743214 -11.689654
v -7.807483 37.631817 -12.593905
v -7.807483 35.618916 -11.788152
v -7.807483 34.714664 -9.676754
v -7.807483 35.520420 -7.663853
v -7.807481 37.631817 -6.759603
v -11.212268 40.548977 -9.676754
v -11.212268 39.743221 -11.689655
v -7.807483 39.743221 -11.689654
v -7.807483 40.548977 -9.676754
v -11.212268 39.743217 -11.689654
v -11.212268 37.631821 -12.593905
v -7.807483 37.631821 -12.593905
v -7.807483 39.743217 -11.689654
v -11.212268 37.631821 -12.593905
v -11.212268 35.618919 -11.788152
v -7.807483 35.618919 -11.788152
v -7.807483 37.631821 -12.593905
v -11.212268 35.618919 -11.788152
v -11.212268 34.714668 -9.676755
v -7.807483 34.714668 -9.676755
v -7.807483 35.618919 -11.788152
v -11.212268 34.714672 -9.676755
v -11.212268 35.520428 -7.663855
v -7.807483 35.520428 -7.663855
v -7.807483 34.714672 -9.676755
vt 0.179121 0.551965
vt 0.329484 0.577284
vt 0.320636 0.633321
vt 0.185019 0.622748
vt 0.204352 0.532030
vt 0.190436 0.532030
vt 0.190436 0.452044
vt 0.204352 0.452044
vt 0.190436 0.448565
vt 0.190436 0.537248
vt 0.204352 0.537248
vt 0.204352 0.448565
vt 0.185019 0.622748
vt 0.320636 0.633321
vt 0.329484 0.577284
vt 0.179121 0.551965
vt 0.115786 0.815845
vt 0.120057 0.831343
vt 0.161903 0.819813
vt 0.156351 0.799665
vt 0.104044 0.832772
vt 0.107240 0.868577
vt 0.123252 0.867148
vt 0.120057 0.831343
vt 0.156351 0.799665
vt 0.122456 0.766389
vt 0.096744 0.785355
vt 0.115786 0.815845
vt 0.182569 0.822923
vt 0.161903 0.819813
vt 0.154834 0.866784
vt 0.175501 0.869894
vt 0.120057 0.831343
vt 0.123252 0.867148
vt 0.154834 0.866784
vt 0.161903 0.819813
vt 0.107654 0.751636
vt 0.085358 0.774007
vt 0.096744 0.785355
vt 0.122456 0.766389
vt 0.014011 0.677079
vt 0.013996 0.696531
vt 0.044542 0.696554
vt 0.044557 0.677102
vt 0.052043 0.764296
vt 0.066625 0.749736
vt 0.066640 0.730285
vt 0.052080 0.715703
vt 0.032628 0.715688
vt 0.018046 0.730248
vt 0.018032 0.749700
vt 0.032591 0.764282
vt 0.044557 0.698475
vt 0.044572 0.677868
vt 0.014027 0.677845
vt 0.014011 0.698452
vt 0.013996 0.678007
vt 0.013981 0.698614
vt 0.044527 0.698637
vt 0.044542 0.678030
vt 0.051391 0.764356
vt 0.065973 0.749796
vt 0.065987 0.730344
vt 0.051428 0.715762
vt 0.031976 0.715748
vt 0.017394 0.730308
vt 0.017379 0.749759
vt 0.031939 0.764341
vt 0.013981 0.677241
vt 0.013966 0.696693
vt 0.044512 0.696716
vt 0.044527 0.677264
vt 0.013966 0.676745
vt 0.013951 0.697351
vt 0.044496 0.697374
vt 0.044512 0.676768
vt 0.013951 0.675978
vt 0.013936 0.695430
vt 0.044482 0.695453
vt 0.044496 0.676001
vt 0.013936 0.676907
vt 0.013920 0.697513
vt 0.044466 0.697536
vt 0.044482 0.676930
vt 0.013920 0.676140
vt 0.013906 0.695592
vt 0.044451 0.695615
vt 0.044466 0.676163
vn -1.000000 0.000000 0.000000
vn -1.000000 0.000000 0.000000
vn -1.000000 0.000000 0.000000
vn -1.000000 0.000000 0.000000
vn 0.000000 -0.077723 0.996975
vn 0.000000 -0.077723 0.996975
vn 0.000000 -0.077723 0.996975
vn 0.000000 -0.077723 0.996975
vn 0.000000 0.166048 -0.986118
vn 0.000000 0.166048 -0.986118
vn 0.000000 0.166048 -0.986118
vn 0.000000 0.166048 -0.986118
vn 1.000000 0.000000 0.000000
vn 1.000000 0.000000 0.000000
vn 1.000000 0.000000 0.000000
vn 1.000000 0.000000 0.000000
vn 0.000000 0.000000 -1.000000
vn 0.000000 0.000000 -1.000000
vn 0.000000 0.000000 -1.000000
vn 0.000000 0.000000 -1.000000
vn 0.000000 -0.983870 -0.178885
vn 0.000000 -0.983870 -0.178885
vn 0.000000 -0.983870 -0.178885
vn 0.000000 -0.983870 -0.178885
vn -0.988245 -0.139700 -0.062089
vn -0.988245 -0.139700 -0.062089
vn -0.988245 -0.139700 -0.062089
vn -0.988245 -0.139700 -0.062089
vn 0.000000 0.913812 0.406138
vn 0.000000 0.913812 0.406138
vn 0.000000 0.913812 0.406138
vn 0.000000 0.913812 0.406138
vn 1.000000 0.000000 0.000000
vn 1.000000 0.000000 0.000000
vn 1.000000 0.000000 0.000000
vn 1.000000 0.000000 0.000000
vn 0.000000 -0.254493 0.967075
vn 0.000000 -0.254493 0.967075
vn 0.000000 -0.254493 0.967075
vn 0.000000 -0.254493 0.967075
vn 0.000000 0.371626 0.928382
vn 0.000000 0.371626 0.928382
vn 0.000000 0.371626 0.928382
vn 0.000000 0.371626 0.928382
vn -1.000000 0.000000 0.000000
vn -1.000000 0.000000 0.000000
vn -1.000000 0.000000 0.000000
vn -1.000000 0.000000 0.000000
vn -1.000000 0.000000 0.000000
vn -1.000000 0.000000 0.000000
vn -1.000000 0.000000 0.000000
vn -1.000000 0.000000 0.000000
vn 0.000000 -0.393686 0.919245
vn 0.000000 -0.393686 0.919245
vn 0.000000 -0.393686 0.919245
vn 0.000000 -0.393686 0.919245
vn 0.000000 0.919245 0.393686
vn 0.000000 0.919245 0.393686
vn 0.000000 0.919245 0.393686
vn 0.000000 0.919245 0.393686
vn 1.000000 0.000000 0.000000
vn 1.000000 0.000000 0.000000
vn 1.000000 0.000000 0.000000
vn 1.000000 0.000000 0.000000
vn 1.000000 0.000000 0.000000
vn 1.000000 0.000000 0.000000
vn 1.000000 0.000000 0.000000
vn 1.000000 0.000000 0.000000
vn 0.000000 0.928382 -0.371627
vn 0.000000 0.928382 -0.371627
vn 0.000000 0.928382 -0.371627
vn 0.000000 0.928382 -0.371627
vn 0.000000 0.393686 -0.919245
vn 0.000000 0.393686 -0.919245
vn 0.000000 0.393686 -0.919245
vn 0.000000 0.393686 -0.919245
vn 0.000000 -0.371627 -0.928382
vn 0.000000 -0.371627 -0.928382
vn 0.000000 -0.371627 -0.928382
vn 0.000000 -0.371627 -0.928382
vn 0.000000 -0.919245 -0.393686
vn 0.000000 -0.919245 -0.393686
vn 0.000000 -0.919245 -0.393686
vn 0.000000 -0.919245 -0.393686
vn 0.000000 -0.928382 0.371627
vn 0.000000 -0.928382 0.371627
vn 0.000000 -0.928382 0.371627
vn 0.000000 -0.928382 0.371627
s off
g polySurface7
usemtl lambert2SG
f 1/1/1 4/4/2 3/3/3 2/2/4
f 5/5/5 8/8/6 7/7/7 6/6/8
f 9/9/9 12/12/10 11/11/11 10/10/12
f 13/13/13 16/16/14 15/15/15 14/14/16
f 17/17/17 20/20/18 19/19/19 18/18/20
f 21/21/21 24/24/22 23/23/23 22/22/24
f 25/25/25 28/28/26 27/27/27 26/26/28
f 29/29/29 32/32/30 31/31/31 30/30/32
f 33/33/33 36/36/34 35/35/35 34/34/36
f 37/37/37 40/40/38 39/39/39 38/38/40
f 41/41/41 44/44/42 43/43/43 42/42/44
f 45/45/45 52/52/46 51/51/47 50/50/48 49/49/49 48/48/50 47/47/51 46/46/52
f 53/53/53 56/56/54 55/55/55 54/54/56
f 57/57/57 60/60/58 59/59/59 58/58/60
f 61/61/61 68/68/62 67/67/63 66/66/64 65/65/65 64/64/66 63/63/67 62/62/68
f 69/69/69 72/72/70 71/71/71 70/70/72
f 73/73/73 76/76/74 75/75/75 74/74/76
f 77/77/77 80/80/78 79/79/79 78/78/80
f 81/81/81 84/84/82 83/83/83 82/82/84
f 85/85/85 88/88/86 87/87/87 86/86/88
