# This file uses centimeters as units for non-parametric coordinates.

mtllib lleg2.mtl
g default
v -9.272112 24.717800 -9.046185
v -9.272112 25.678566 -11.289546
v -9.272112 24.822453 -13.428252
v -9.272112 22.579092 -14.389019
v -9.272112 20.440386 -13.532907
v -9.272112 19.479620 -11.289546
v -9.272112 20.335732 -9.150841
v -9.272112 22.579092 -8.190073
v -11.780901 22.579092 -8.190074
v -11.780901 24.717800 -9.046186
v -9.272113 24.717798 -9.046186
v -9.272113 22.579092 -8.190074
v -11.780901 22.579092 -8.190072
v -11.780901 20.335732 -9.150840
v -11.780901 19.479620 -11.289545
v -11.780901 20.440386 -13.532906
v -11.780901 22.579092 -14.389018
v -11.780901 24.822453 -13.428251
v -11.780901 25.678566 -11.289545
v -11.780901 24.717800 -9.046185
v -9.272112 22.579090 -8.190073
v -9.272112 20.335730 -9.150841
v -11.780901 20.335730 -9.150841
v -11.780901 22.579090 -8.190073
v -11.780901 24.717800 -9.046186
v -11.780901 25.678566 -11.289547
v -9.272113 25.678566 -11.289547
v -9.272113 24.717798 -9.046186
v -11.780901 25.678566 -11.289546
v -11.780901 24.822453 -13.428252
v -9.272112 24.822453 -13.428252
v -9.272112 25.678566 -11.289546
v -11.780901 24.822453 -13.428251
v -11.780901 22.579092 -14.389018
v -9.272113 22.579092 -14.389018
v -9.272112 24.822453 -13.428251
v -11.780901 22.579092 -14.389020
v -11.780901 20.440386 -13.532907
v -9.272112 20.440386 -13.532907
v -9.272112 22.579092 -14.389020
v -11.780899 20.440386 -13.532906
v -11.780899 19.479620 -11.289545
v -9.272111 19.479620 -11.289545
v -9.272111 20.440386 -13.532906
v -11.780897 19.479622 -11.289547
v -11.780897 20.335733 -9.150842
v -9.272110 20.335733 -9.150842
v -9.272110 19.479622 -11.289547
v -12.139300 6.451169 -1.791991
v -9.809711 6.451169 -1.791991
v -9.809711 4.300779 -6.271970
v -12.139300 4.300779 -6.271970
v -12.139300 6.451169 -1.791992
v -12.139300 10.393550 -1.971191
v -9.809710 10.393550 -1.971191
v -9.809710 6.451169 -1.791992
v -12.139300 4.300779 -6.271970
v -9.809710 4.300779 -6.271970
v -9.809710 5.375974 -8.601559
v -12.139300 5.375974 -8.601559
v -9.809712 4.300780 -6.271970
v -9.809712 6.451169 -1.791991
v -9.809713 10.393550 -1.971190
v -9.809713 13.260736 -4.659177
v -9.809713 11.647944 -7.884762
v -9.809712 5.375975 -8.601559
v -12.139300 5.375974 -8.601559
v -12.139300 11.647944 -7.884762
v -12.139300 13.260736 -4.659177
v -12.139300 10.393550 -1.971190
v -12.139300 6.451169 -1.791991
v -12.139300 4.300779 -6.271970
v -12.139300 11.647943 -7.884762
v -9.809710 11.647943 -7.884762
v -9.809710 13.260735 -4.659177
v -12.139300 13.260736 -4.659177
v -9.809711 5.375974 -8.601559
v -9.809711 11.647944 -7.884762
v -12.139300 11.647944 -7.884762
v -12.139300 5.375974 -8.601559
v -12.139300 13.260736 -4.659178
v -9.809711 13.260736 -4.659178
v -11.243304 20.607901 -12.543941
v -11.243304 14.873528 -11.110347
v -9.809711 14.873528 -11.110347
v -9.809710 20.607903 -12.543941
v -11.243304 21.145498 -8.959958
v -9.809711 21.145498 -8.959958
v -9.809711 17.740715 -5.913572
v -11.243304 17.740715 -5.913572
v -11.243302 21.145498 -8.959957
v -11.243304 17.740715 -5.913572
v -11.243304 14.873528 -11.110347
v -11.243304 20.607903 -12.543941
v -9.809712 20.607903 -12.543940
v -9.809711 14.873529 -11.110346
v -9.809711 17.740715 -5.913571
v -9.809712 21.145498 -8.959956
v -11.243304 13.260736 -4.659177
v -11.243304 11.647943 -7.884762
v -9.809711 13.260737 -4.659178
v -11.243304 13.260736 -4.659178
v -9.809711 11.647943 -7.884762
v -9.809711 13.260736 -4.659177
v -11.243304 11.647943 -7.884762
v -9.809712 11.647943 -7.884762
vt 0.123964 0.708238
vt 0.139457 0.692768
vt 0.139473 0.672100
vt 0.124003 0.656607
vt 0.103336 0.656592
vt 0.087842 0.672062
vt 0.087827 0.692729
vt 0.103297 0.708222
vt 0.019836 0.632701
vt 0.019821 0.653368
vt 0.042328 0.653385
vt 0.042344 0.632718
vt 0.123918 0.708182
vt 0.139411 0.692712
vt 0.139427 0.672045
vt 0.123957 0.656551
vt 0.103290 0.656536
vt 0.087797 0.672006
vt 0.087781 0.692673
vt 0.103251 0.708166
vt 0.042344 0.655515
vt 0.042360 0.633621
vt 0.019853 0.633604
vt 0.019836 0.655498
vt 0.019821 0.633420
vt 0.019804 0.655314
vt 0.042312 0.655331
vt 0.042328 0.633437
vt 0.019804 0.632517
vt 0.019789 0.653184
vt 0.042296 0.653201
vt 0.042312 0.632534
vt 0.019789 0.633236
vt 0.019772 0.655130
vt 0.042279 0.655147
vt 0.042296 0.633253
vt 0.019772 0.632333
vt 0.019756 0.653000
vt 0.042264 0.653017
vt 0.042279 0.632350
vt 0.019756 0.633052
vt 0.019740 0.654946
vt 0.042247 0.654963
vt 0.042264 0.633069
vt 0.019740 0.632149
vt 0.019724 0.652816
vt 0.042232 0.652833
vt 0.042247 0.632165
vt 0.242864 0.351857
vt 0.222899 0.351385
vt 0.221799 0.393704
vt 0.241676 0.394261
vt 0.242864 0.351857
vt 0.243705 0.317790
vt 0.223441 0.317484
vt 0.222899 0.351385
vt 0.243535 0.168628
vt 0.222019 0.169005
vt 0.222434 0.192701
vt 0.243896 0.192415
vt 0.063920 0.324047
vt 0.094373 0.387490
vt 0.150202 0.384952
vt 0.190806 0.346886
vt 0.167966 0.301208
vt 0.079147 0.291057
vt 0.079147 0.291057
vt 0.167966 0.301208
vt 0.190806 0.346886
vt 0.150202 0.384952
vt 0.094373 0.387490
vt 0.063920 0.324047
vt 0.244478 0.250533
vt 0.223211 0.250707
vt 0.223579 0.283104
vt 0.244282 0.283191
vt 0.222434 0.192701
vt 0.223211 0.250707
vt 0.244478 0.250533
vt 0.243896 0.192415
vt 0.244282 0.283191
vt 0.223579 0.283104
vt 0.376409 0.627868
vt 0.376409 0.606556
vt 0.355099 0.606556
vt 0.355099 0.627868
vt 0.376409 0.574589
vt 0.355099 0.574589
vt 0.355099 0.529303
vt 0.376409 0.529303
vt 0.389093 0.466250
vt 0.330934 0.518287
vt 0.281959 0.429519
vt 0.379910 0.405031
vt 0.379910 0.405031
vt 0.281959 0.429519
vt 0.330934 0.518287
vt 0.389093 0.466250
vt 0.254410 0.539714
vt 0.226861 0.484616
vt 0.355099 0.510655
vt 0.376409 0.510655
vt 0.281959 0.429519
vt 0.226861 0.484616
vt 0.254410 0.539714
vt 0.330934 0.518287
vt 0.376409 0.558606
vt 0.355099 0.558606
vn -1.000000 0.000000 0.000000
vn -1.000000 0.000000 0.000000
vn -1.000000 0.000000 0.000000
vn -1.000000 0.000000 0.000000
vn -1.000000 0.000000 0.000000
vn -1.000000 0.000000 0.000000
vn -1.000000 0.000000 0.000000
vn -1.000000 0.000000 0.000000
vn 0.000000 0.371626 0.928382
vn 0.000000 0.371626 0.928382
vn 0.000000 0.371626 0.928382
vn 0.000000 0.371626 0.928382
vn -1.000000 0.000000 0.000000
vn -1.000000 0.000000 0.000000
vn -1.000000 0.000000 0.000000
vn -1.000000 0.000000 0.000000
vn -1.000000 0.000000 0.000000
vn -1.000000 0.000000 0.000000
vn -1.000000 0.000000 0.000000
vn -1.000000 0.000000 0.000000
vn 0.000000 -0.393686 0.919245
vn 0.000000 -0.393686 0.919245
vn 0.000000 -0.393686 0.919245
vn 0.000000 -0.393686 0.919245
vn 0.000000 0.919245 0.393685
vn 0.000000 0.919245 0.393685
vn 0.000000 0.919245 0.393685
vn 0.000000 0.919245 0.393685
vn 0.000000 0.928382 -0.371626
vn 0.000000 0.928382 -0.371626
vn 0.000000 0.928382 -0.371626
vn 0.000000 0.928382 -0.371626
vn 0.000000 0.393686 -0.919245
vn 0.000000 0.393686 -0.919245
vn 0.000000 0.393686 -0.919245
vn 0.000000 0.393686 -0.919245
vn 0.000000 -0.371626 -0.928382
vn 0.000000 -0.371626 -0.928382
vn 0.000000 -0.371626 -0.928382
vn 0.000000 -0.371626 -0.928382
vn 0.000000 -0.919245 -0.393686
vn 0.000000 -0.919245 -0.393686
vn 0.000000 -0.919245 -0.393686
vn 0.000000 -0.919245 -0.393686
vn 0.000000 -0.928382 0.371626
vn 0.000000 -0.928382 0.371626
vn 0.000000 -0.928382 0.371626
vn 0.000000 -0.928382 0.371626
vn -0.000000 -0.901523 0.432731
vn -0.000000 -0.901523 0.432731
vn -0.000000 -0.901523 0.432731
vn -0.000000 -0.901523 0.432731
vn 0.000000 0.045408 0.998969
vn 0.000000 0.045408 0.998969
vn 0.000000 0.388762 0.921338
vn 0.000000 0.388762 0.921338
vn 0.000000 -0.907959 -0.419058
vn 0.000000 -0.907959 -0.419058
vn 0.000000 -0.907959 -0.419058
vn 0.000000 -0.907959 -0.419058
vn 1.000000 0.000000 0.000000
vn 1.000000 0.000000 0.000000
vn 1.000000 0.000000 0.000000
vn 1.000000 0.000000 0.000000
vn 1.000000 0.000000 0.000000
vn 1.000000 0.000000 0.000000
vn -1.000000 0.000000 0.000000
vn -1.000000 0.000000 0.000000
vn -1.000000 0.000000 0.000000
vn -1.000000 0.000000 0.000000
vn -1.000000 0.000000 0.000000
vn -1.000000 0.000000 0.000000
vn 0.000000 0.894427 -0.447214
vn 0.000000 0.894427 -0.447214
vn 0.000000 0.894427 -0.447214
vn 0.000000 0.894427 -0.447214
vn 0.000000 0.113547 -0.993533
vn 0.000000 0.113547 -0.993533
vn 0.000000 0.113547 -0.993533
vn 0.000000 0.113547 -0.993533
vn 0.000000 0.388762 0.921338
vn 0.000000 0.388762 0.921338
vn 0.000000 0.490863 0.871237
vn 0.000000 0.683941 0.729537
vn -0.000000 -0.242536 -0.970142
vn -0.000000 -0.242536 -0.970142
vn -0.000000 -0.242536 -0.970142
vn -0.000000 -0.242536 -0.970142
vn 0.000000 0.666795 0.745241
vn 0.000000 0.480701 0.876884
vn 0.000000 0.480701 0.876884
vn 0.000000 0.666795 0.745241
vn -1.000000 0.000000 0.000000
vn -1.000000 0.000000 0.000000
vn -1.000000 0.000000 0.000000
vn -1.000000 0.000000 0.000000
vn 1.000000 0.000000 0.000000
vn 1.000000 0.000000 0.000000
vn 1.000000 0.000000 0.000000
vn 1.000000 0.000000 0.000000
vn -1.000000 0.000000 0.000000
vn -1.000000 0.000000 0.000000
vn -1.000000 0.000000 0.000000
vn -1.000000 0.000000 0.000000
vn 0.000000 0.480701 0.876884
vn 0.000000 0.480701 0.876884
vn 0.000000 0.269630 0.962964
vn 0.000000 0.490863 0.871237
vn 1.000000 0.000000 0.000000
vn 1.000000 0.000000 0.000000
vn 1.000000 0.000000 0.000000
vn 1.000000 0.000000 0.000000
vn 0.000000 -0.492699 -0.870200
vn 0.000000 -0.492699 -0.870200
vn 0.000000 -0.707107 -0.707107
vn 0.000000 -0.707107 -0.707107
s off
g polySurface8
usemtl lambert2SG
f 1/1/1 2/2/2 3/3/3 4/4/4 5/5/5 6/6/6 7/7/7 8/8/8
f 9/9/9 12/12/10 11/11/11 10/10/12
f 13/13/13 20/20/14 19/19/15 18/18/16 17/17/17 16/16/18 15/15/19 14/14/20
f 21/21/21 24/24/22 23/23/23 22/22/24
f 25/25/25 28/28/26 27/27/27 26/26/28
f 29/29/29 32/32/30 31/31/31 30/30/32
f 33/33/33 36/36/34 35/35/35 34/34/36
f 37/37/37 40/40/38 39/39/39 38/38/40
f 41/41/41 44/44/42 43/43/43 42/42/44
f 45/45/45 48/48/46 47/47/47 46/46/48
f 49/49/49 52/52/50 51/51/51 50/50/52
f 53/53/53 56/56/54 55/55/55 54/54/56
f 57/57/57 60/60/58 59/59/59 58/58/60
f 61/61/61 66/66/62 65/65/63 64/64/64 63/63/65 62/62/66
f 67/67/67 72/72/68 71/71/69 70/70/70 69/69/71 68/68/72
f 73/73/73 76/76/74 75/75/75 74/74/76
f 77/77/77 80/80/78 79/79/79 78/78/80
f 54/54/81 55/55/82 82/82/83 81/81/84
f 83/83/85 86/86/86 85/85/87 84/84/88
f 87/87/89 90/90/90 89/89/91 88/88/92
f 91/91/93 94/94/94 93/93/95 92/92/96
f 95/95/97 98/98/98 97/97/99 96/96/100
f 92/92/101 93/93/102 100/100/103 99/99/104
f 89/89/105 90/90/106 102/102/107 101/101/108
f 96/103/109 97/106/110 104/105/111 103/104/112
f 84/84/113 85/85/114 106/108/115 105/107/116
