# This file uses centimeters as units for non-parametric coordinates.

mtllib rfoot.mtl
g default
v 11.827144 4.659178 -5.734373
v 11.827144 5.913572 -3.225585
v 11.827144 5.017576 -2.150390
v 11.827144 1.971191 -3.404784
v 11.827144 5.017576 -2.150390
v 11.827144 5.913572 -3.225585
v 10.214352 5.913572 -3.225585
v 10.214352 5.017576 -2.150390
v 11.827144 1.971191 -3.404784
v 10.214352 1.971191 -3.404784
v 10.214352 4.659178 -5.734373
v 11.827144 4.659178 -5.734373
v 10.214352 1.971191 -3.404784
v 10.214352 5.017576 -2.150390
v 10.214352 5.913572 -3.225585
v 10.214352 4.659178 -5.734373
v 9.139156 1.612792 8.243160
v 9.139156 0.000000 8.243160
v 12.902338 0.000000 8.243160
v 12.902338 1.612792 8.243160
v 12.902338 1.612792 8.243160
v 12.902338 1.612792 -3.942381
v 9.139156 1.612792 -3.942381
v 9.139156 1.612792 8.243160
v 12.902338 1.612792 8.243160
v 12.902338 0.000000 8.243160
v 12.902338 0.000000 -3.942381
v 12.902338 1.612792 -3.942381
v 9.139156 1.612792 -3.942381
v 9.139156 0.000000 -3.942381
v 9.139156 0.000000 8.243160
v 9.139156 1.612792 8.243160
v 12.902338 1.612792 -3.942381
v 12.902338 0.000000 -3.942381
v 9.139156 0.000000 -3.942381
v 9.139156 1.612792 -3.942381
v 9.139156 0.000000 8.243160
v 9.139156 0.000000 -3.942381
v 12.902338 0.000000 -3.942381
v 12.902338 0.000000 8.243160
v 12.543941 1.612792 -3.583983
v 12.543941 5.375974 -1.971191
v 12.543941 1.612792 7.526364
v 12.543941 1.612792 7.526364
v 12.543941 5.375974 -1.971191
v 9.497555 5.375974 -1.971191
v 9.497555 1.612792 7.526364
v 9.497555 1.612792 7.526364
v 9.497555 5.375974 -1.971191
v 9.497555 1.612792 -3.583983
v 9.497555 1.612792 -3.583983
v 9.497555 5.375974 -1.971191
v 12.543941 5.375974 -1.971191
v 12.543941 1.612792 -3.583983
v 11.110347 2.867186 -5.375974
v 13.439936 1.791991 -5.375974
v 13.619135 3.046386 -5.375974
v 11.110347 5.017576 -5.375974
v 11.110347 2.867186 -5.375974
v 8.780758 1.791991 -5.375974
v 8.780758 1.791991 -6.630368
v 11.110347 2.867186 -6.630368
v 11.110347 5.017576 -5.375974
v 13.619135 3.046386 -5.375974
v 13.619135 3.046386 -6.630368
v 11.110347 5.017576 -6.630368
v 8.601559 3.046386 -5.375974
v 8.780758 1.791991 -5.375974
v 11.110347 2.867186 -6.630368
v 13.439936 1.791991 -6.630368
v 13.439936 1.791991 -5.375974
v 11.110347 2.867186 -5.375974
v 11.110347 2.867186 -6.630368
v 8.780758 1.791991 -6.630368
v 8.601559 3.046386 -6.630368
v 11.110347 5.017576 -6.630368
v 13.619135 3.046386 -6.630368
v 13.439936 1.791991 -6.630368
v 11.110347 5.017576 -6.630368
v 8.601559 3.046386 -6.630368
v 8.601559 3.046386 -5.375974
v 11.110347 5.017576 -5.375974
v 20.787100 0.895996 -7.526364
v 12.723139 0.895996 -7.526364
v 12.723139 0.895996 -4.479979
v 20.787100 0.895996 -4.479979
v 20.787100 0.895996 -7.526364
v 20.787100 0.000000 -7.526364
v 12.723139 0.000000 -7.526364
v 12.723139 0.895996 -7.526364
v 20.787100 0.895996 -4.479979
v 20.787100 0.000000 -4.479979
v 20.787100 0.000000 -7.526364
v 20.787100 0.895996 -7.526364
v 12.723139 0.895996 -7.526364
v 12.723139 0.000000 -7.526364
v 12.723139 0.000000 -4.479979
v 12.723139 0.895996 -4.479979
v 12.723139 0.895996 -4.479979
v 12.723139 0.000000 -4.479979
v 20.787100 0.000000 -4.479979
v 20.787100 0.895996 -4.479979
v 20.787100 0.000000 -4.479979
v 12.723139 0.000000 -4.479979
v 12.723139 0.000000 -7.526364
v 20.787100 0.000000 -7.526364
v 13.081537 0.895996 -4.838377
v 13.619135 3.763182 -4.838377
v 13.619135 3.763182 -7.167966
v 13.081537 0.895996 -7.167966
v 20.428703 0.895996 -4.838377
v 13.619135 3.763182 -4.838377
v 13.081537 0.895996 -4.838377
v 20.428703 0.895996 -7.167966
v 13.619135 3.763182 -7.167966
v 13.619135 3.763182 -4.838377
v 20.428703 0.895996 -4.838377
v 13.081537 0.895996 -7.167966
v 13.619135 3.763182 -7.167966
v 20.428703 0.895996 -7.167966
v 1.433593 0.895996 -7.526364
v 1.433593 0.000000 -7.526364
v 1.433593 0.000000 -4.479979
v 1.433593 0.895996 -4.479979
v 1.433593 0.895996 -4.479979
v 9.497555 0.895996 -4.479979
v 9.497555 0.895996 -7.526364
v 1.433593 0.895996 -7.526364
v 1.433593 0.895996 -4.479979
v 1.433593 0.000000 -4.479979
v 9.497555 0.000000 -4.479979
v 9.497555 0.895996 -4.479979
v 9.497555 0.895996 -7.526364
v 9.497555 0.000000 -7.526364
v 1.433593 0.000000 -7.526364
v 1.433593 0.895996 -7.526364
v 9.497555 0.895996 -4.479979
v 9.497555 0.000000 -4.479979
v 9.497555 0.000000 -7.526364
v 9.497555 0.895996 -7.526364
v 1.433593 0.000000 -7.526364
v 9.497555 0.000000 -7.526364
v 9.497555 0.000000 -4.479979
v 1.433593 0.000000 -4.479979
v 9.139156 0.895996 -4.838377
v 8.601559 3.763182 -4.838377
v 1.791991 0.895996 -4.838377
v 1.791991 0.895996 -4.838377
v 8.601559 3.763182 -4.838377
v 8.601559 3.763182 -7.167966
v 1.791991 0.895996 -7.167966
v 1.791991 0.895996 -7.167966
v 8.601559 3.763182 -7.167966
v 9.139156 0.895996 -7.167966
v 9.139156 0.895996 -7.167966
v 8.601559 3.763182 -7.167966
v 8.601559 3.763182 -4.838377
v 9.139156 0.895996 -4.838377
vt 0.098835 0.418360
vt 0.135158 0.491005
vt 0.109213 0.522139
vt 0.021001 0.485816
vt 0.109213 0.522139
vt 0.135158 0.491005
vt 0.135158 0.491005
vt 0.109213 0.522139
vt 0.021001 0.485816
vt 0.021001 0.485816
vt 0.098835 0.418360
vt 0.098835 0.418360
vt 0.021001 0.485816
vt 0.109213 0.522139
vt 0.135158 0.491005
vt 0.098835 0.418360
vt 0.434456 0.915326
vt 0.422742 0.915326
vt 0.422742 0.936153
vt 0.434456 0.936153
vt 0.387143 0.844155
vt 0.387271 0.734834
vt 0.353509 0.734794
vt 0.353382 0.844116
vt 0.434456 0.936153
vt 0.422742 0.936153
vt 0.422742 0.847647
vt 0.434456 0.847647
vt 0.434456 0.847647
vt 0.422742 0.847647
vt 0.422742 0.936153
vt 0.434456 0.936153
vt 0.434456 0.872618
vt 0.422742 0.872618
vt 0.422742 0.847647
vt 0.434456 0.847647
vt 0.353509 0.734794
vt 0.353382 0.844116
vt 0.387143 0.844155
vt 0.387271 0.734834
vt 0.364148 0.957673
vt 0.386812 0.945674
vt 0.364148 0.875010
vt 0.386812 0.875010
vt 0.386812 0.945674
vt 0.364148 0.945674
vt 0.364148 0.875010
vt 0.386812 0.875010
vt 0.364148 0.945674
vt 0.386812 0.957673
vt 0.364148 0.957673
vt 0.364148 0.945674
vt 0.386812 0.945674
vt 0.386812 0.957673
vt 0.786036 0.239671
vt 0.826426 0.221028
vt 0.829533 0.242778
vt 0.786036 0.276956
vt 0.786036 0.239671
vt 0.745645 0.221028
vt 0.745645 0.221028
vt 0.786036 0.239671
vt 0.786036 0.276956
vt 0.829533 0.242778
vt 0.829533 0.242778
vt 0.786036 0.276956
vt 0.742538 0.242778
vt 0.745645 0.221028
vt 0.786036 0.239671
vt 0.826426 0.221028
vt 0.826426 0.221028
vt 0.786036 0.239671
vt 0.786036 0.239671
vt 0.745645 0.221028
vt 0.742538 0.242778
vt 0.786036 0.276956
vt 0.786036 0.276956
vt 0.829533 0.242778
vt 0.826426 0.221028
vt 0.786036 0.239671
vt 0.786036 0.276956
vt 0.742538 0.242778
vt 0.742538 0.242778
vt 0.786036 0.276956
vt 0.389207 0.734719
vt 0.389207 0.846792
vt 0.353327 0.846792
vt 0.353327 0.734719
vt 0.297740 0.760576
vt 0.282358 0.760576
vt 0.282358 0.898989
vt 0.297740 0.898989
vt 0.282358 0.760576
vt 0.282358 0.776494
vt 0.297740 0.776494
vt 0.297740 0.760576
vt 0.282358 0.879583
vt 0.282358 0.898989
vt 0.297740 0.898989
vt 0.297740 0.879583
vt 0.297740 0.898989
vt 0.282358 0.898989
vt 0.282358 0.760576
vt 0.297740 0.760576
vt 0.389207 0.846792
vt 0.389207 0.734719
vt 0.353327 0.734719
vt 0.353327 0.846792
vt 0.390812 0.967006
vt 0.423798 0.967006
vt 0.423798 0.984339
vt 0.390812 0.984339
vt 0.445473 0.984339
vt 0.394811 0.967006
vt 0.390812 0.984339
vt 0.445473 0.984339
vt 0.394811 0.984339
vt 0.394811 0.967006
vt 0.445473 0.967006
vt 0.390812 0.967006
vt 0.394811 0.984339
vt 0.445473 0.967006
vt 0.297740 0.899224
vt 0.282358 0.899224
vt 0.282358 0.879675
vt 0.297740 0.879675
vt 0.297740 0.899224
vt 0.297740 0.760811
vt 0.297740 0.760811
vt 0.297740 0.899224
vt 0.297740 0.899224
vt 0.282358 0.899224
vt 0.282358 0.760811
vt 0.297740 0.760811
vt 0.297740 0.760811
vt 0.282358 0.760811
vt 0.282358 0.899224
vt 0.297740 0.899224
vt 0.297740 0.760811
vt 0.282358 0.760811
vt 0.282358 0.780360
vt 0.297740 0.780360
vt 0.353327 0.846792
vt 0.353327 0.734719
vt 0.389207 0.734719
vt 0.389207 0.846792
vt 0.361482 0.967006
vt 0.357482 0.984339
vt 0.306821 0.967006
vt 0.306821 0.967006
vt 0.357482 0.967006
vt 0.357482 0.984339
vt 0.306821 0.984339
vt 0.306821 0.984339
vt 0.357482 0.967006
vt 0.361482 0.984339
vt 0.361482 0.984339
vt 0.325326 0.984339
vt 0.325326 0.967006
vt 0.361482 0.967006
vn 1.000000 0.000000 0.000000
vn 1.000000 0.000000 0.000000
vn 1.000000 0.000000 0.000000
vn 1.000000 0.000000 0.000000
vn 0.000000 0.768221 0.640184
vn 0.000000 0.768221 0.640184
vn 0.000000 0.768221 0.640184
vn 0.000000 0.768221 0.640184
vn 0.000000 -0.654931 -0.755689
vn 0.000000 -0.654931 -0.755689
vn 0.000000 -0.654931 -0.755689
vn 0.000000 -0.654931 -0.755689
vn -1.000000 0.000000 0.000000
vn -1.000000 0.000000 0.000000
vn -1.000000 0.000000 0.000000
vn -1.000000 0.000000 0.000000
vn 0.000000 0.000000 1.000000
vn 0.000000 0.000000 1.000000
vn 0.000000 0.000000 1.000000
vn 0.000000 0.000000 1.000000
vn 0.000000 1.000000 0.000000
vn 0.000000 1.000000 0.000000
vn 0.000000 1.000000 0.000000
vn 0.000000 1.000000 0.000000
vn 1.000000 0.000000 0.000000
vn 1.000000 0.000000 0.000000
vn 1.000000 0.000000 0.000000
vn 1.000000 0.000000 0.000000
vn -1.000000 0.000000 0.000000
vn -1.000000 0.000000 0.000000
vn -1.000000 0.000000 0.000000
vn -1.000000 0.000000 0.000000
vn 0.000000 0.000000 -1.000000
vn 0.000000 0.000000 -1.000000
vn 0.000000 0.000000 -1.000000
vn 0.000000 0.000000 -1.000000
vn 0.000000 -1.000000 0.000000
vn 0.000000 -1.000000 0.000000
vn 0.000000 -1.000000 0.000000
vn 0.000000 -1.000000 0.000000
vn 1.000000 0.000000 0.000000
vn 1.000000 0.000000 0.000000
vn 1.000000 0.000000 0.000000
vn 0.000000 0.929681 0.368364
vn 0.000000 0.929681 0.368364
vn 0.000000 0.929681 0.368364
vn 0.000000 0.929681 0.368364
vn -1.000000 0.000000 0.000000
vn -1.000000 0.000000 0.000000
vn -1.000000 0.000000 0.000000
vn 0.000000 0.393919 -0.919145
vn 0.000000 0.393919 -0.919145
vn 0.000000 0.393919 -0.919145
vn 0.000000 0.393919 -0.919145
vn 0.000000 0.000000 1.000000
vn 0.000000 0.000000 1.000000
vn 0.000000 0.000000 1.000000
vn 0.000000 0.000000 1.000000
vn 0.419058 -0.907959 0.000000
vn 0.419058 -0.907959 0.000000
vn 0.419058 -0.907959 0.000000
vn 0.419058 -0.907959 0.000000
vn 0.617822 0.786318 0.000000
vn 0.617822 0.786318 0.000000
vn 0.617822 0.786318 0.000000
vn 0.617822 0.786318 0.000000
vn 0.000000 0.000000 1.000000
vn 0.000000 0.000000 1.000000
vn 0.000000 0.000000 1.000000
vn 0.000000 0.000000 1.000000
vn -0.419058 -0.907959 0.000000
vn -0.419058 -0.907959 0.000000
vn -0.419058 -0.907959 0.000000
vn -0.419058 -0.907959 0.000000
vn 0.000000 0.000000 -1.000000
vn 0.000000 0.000000 -1.000000
vn 0.000000 0.000000 -1.000000
vn 0.000000 0.000000 -1.000000
vn 0.000000 0.000000 -1.000000
vn 0.000000 0.000000 -1.000000
vn 0.000000 0.000000 -1.000000
vn 0.000000 0.000000 -1.000000
vn -0.617822 0.786318 0.000000
vn -0.617822 0.786318 0.000000
vn -0.617822 0.786318 0.000000
vn -0.617822 0.786318 0.000000
vn 0.000000 1.000000 -0.000000
vn 0.000000 1.000000 -0.000000
vn 0.000000 1.000000 -0.000000
vn 0.000000 1.000000 -0.000000
vn 0.000000 0.000000 -1.000000
vn 0.000000 0.000000 -1.000000
vn 0.000000 0.000000 -1.000000
vn 0.000000 0.000000 -1.000000
vn 1.000000 0.000000 0.000000
vn 1.000000 0.000000 0.000000
vn 1.000000 0.000000 0.000000
vn 1.000000 0.000000 0.000000
vn -1.000000 0.000000 0.000000
vn -1.000000 0.000000 0.000000
vn -1.000000 0.000000 0.000000
vn -1.000000 0.000000 0.000000
vn 0.000000 0.000000 1.000000
vn 0.000000 0.000000 1.000000
vn 0.000000 0.000000 1.000000
vn 0.000000 0.000000 1.000000
vn 0.000000 -1.000000 0.000000
vn 0.000000 -1.000000 0.000000
vn 0.000000 -1.000000 0.000000
vn 0.000000 -1.000000 0.000000
vn -0.982872 0.184289 0.000000
vn -0.982872 0.184289 0.000000
vn -0.982872 0.184289 0.000000
vn -0.982872 0.184289 0.000000
vn 0.000000 0.000000 1.000000
vn 0.000000 0.000000 1.000000
vn 0.000000 0.000000 1.000000
vn 0.388057 0.921635 0.000000
vn 0.388057 0.921635 0.000000
vn 0.388057 0.921635 0.000000
vn 0.388057 0.921635 0.000000
vn 0.000000 0.000000 -1.000000
vn 0.000000 0.000000 -1.000000
vn 0.000000 0.000000 -1.000000
vn -1.000000 -0.000000 0.000000
vn -1.000000 -0.000000 0.000000
vn -1.000000 -0.000000 0.000000
vn -1.000000 -0.000000 0.000000
vn 0.000000 1.000000 0.000000
vn 0.000000 1.000000 0.000000
vn 0.000000 1.000000 0.000000
vn 0.000000 1.000000 0.000000
vn 0.000000 0.000000 1.000000
vn 0.000000 0.000000 1.000000
vn 0.000000 0.000000 1.000000
vn 0.000000 0.000000 1.000000
vn 0.000000 0.000000 -1.000000
vn 0.000000 0.000000 -1.000000
vn 0.000000 0.000000 -1.000000
vn 0.000000 0.000000 -1.000000
vn 1.000000 0.000000 0.000000
vn 1.000000 0.000000 0.000000
vn 1.000000 0.000000 0.000000
vn 1.000000 0.000000 0.000000
vn 0.000000 -1.000000 0.000000
vn 0.000000 -1.000000 0.000000
vn 0.000000 -1.000000 0.000000
vn 0.000000 -1.000000 0.000000
vn 0.000000 0.000000 1.000000
vn 0.000000 0.000000 1.000000
vn 0.000000 0.000000 1.000000
vn -0.388057 0.921635 0.000000
vn -0.388057 0.921635 0.000000
vn -0.388057 0.921635 0.000000
vn -0.388057 0.921635 0.000000
vn 0.000000 0.000000 -1.000000
vn 0.000000 0.000000 -1.000000
vn 0.000000 0.000000 -1.000000
vn 0.982872 0.184289 0.000000
vn 0.982872 0.184289 0.000000
vn 0.982872 0.184289 0.000000
vn 0.982872 0.184289 0.000000
s off
g polySurface5
usemtl lambert2SG
f 1/1/1 2/2/2 3/3/3 4/4/4
f 5/5/5 6/6/6 7/7/7 8/8/8
f 9/9/9 10/10/10 11/11/11 12/12/12
f 13/13/13 14/14/14 15/15/15 16/16/16
f 17/17/17 18/18/18 19/19/19 20/20/20
f 21/21/21 22/22/22 23/23/23 24/24/24
f 25/25/25 26/26/26 27/27/27 28/28/28
f 29/29/29 30/30/30 31/31/31 32/32/32
f 33/33/33 34/34/34 35/35/35 36/36/36
f 37/37/37 38/38/38 39/39/39 40/40/40
f 41/41/41 42/42/42 43/43/43
f 44/44/44 45/45/45 46/46/46 47/47/47
f 48/48/48 49/49/49 50/50/50
f 51/51/51 52/52/52 53/53/53 54/54/54
f 55/55/55 56/56/56 57/57/57 58/58/58
f 59/59/59 60/60/60 61/61/61 62/62/62
f 63/63/63 64/64/64 65/65/65 66/66/66
f 58/58/67 67/67/68 68/68/69 55/55/70
f 69/69/71 70/70/72 71/71/73 72/72/74
f 73/73/75 74/74/76 75/75/77 76/76/78
f 76/77/79 77/78/80 78/79/81 73/80/82
f 79/81/83 80/82/84 81/83/85 82/84/86
f 83/85/87 84/86/88 85/87/89 86/88/90
f 87/89/91 88/90/92 89/91/93 90/92/94
f 91/93/95 92/94/96 93/95/97 94/96/98
f 95/97/99 96/98/100 97/99/101 98/100/102
f 99/101/103 100/102/104 101/103/105 102/104/106
f 103/105/107 104/106/108 105/107/109 106/108/110
f 107/109/111 108/110/112 109/111/113 110/112/114
f 111/113/115 112/114/116 113/115/117
f 114/116/118 115/117/119 116/118/120 117/119/121
f 118/120/122 119/121/123 120/122/124
f 121/123/125 122/124/126 123/125/127 124/126/128
f 125/127/129 126/128/130 127/129/131 128/130/132
f 129/131/133 130/132/134 131/133/135 132/134/136
f 133/135/137 134/136/138 135/137/139 136/138/140
f 137/139/141 138/140/142 139/141/143 140/142/144
f 141/143/145 142/144/146 143/145/147 144/146/148
f 145/147/149 146/148/150 147/149/151
f 148/150/152 149/151/153 150/152/154 151/153/155
f 152/154/156 153/155/157 154/156/158
f 155/157/159 156/158/160 157/159/161 158/160/162
