# This file uses centimeters as units for non-parametric coordinates.

mtllib rleg.mtl
g default
v 11.289546 23.657383 -13.903125
v 11.289546 32.793442 -12.364741
v 11.289546 32.255844 -8.959957
v 11.289546 24.015781 -9.602345
v 11.289546 32.255844 -8.959957
v 9.855953 32.255844 -8.959957
v 9.855953 24.015781 -9.602345
v 11.289546 24.015781 -9.602345
v 9.855953 23.657383 -13.903125
v 9.855953 32.793442 -12.364741
v 11.289546 32.793442 -12.364741
v 11.289546 23.657383 -13.903125
v 9.855953 24.015781 -9.602345
v 9.855953 32.255844 -8.959957
v 9.855953 32.793442 -12.364741
v 9.855953 23.657383 -13.903125
v 11.647944 32.793442 -12.543941
v 9.855953 32.793442 -12.543941
v 9.855953 37.631821 -12.543941
v 12.185542 37.631821 -12.543941
v 11.647944 32.793442 -12.543941
v 11.647944 32.076649 -8.601559
v 9.855953 32.076649 -8.601559
v 9.855953 32.793442 -12.543941
v 12.185542 37.631821 -12.543941
v 12.185542 35.481430 -7.705563
v 11.647944 32.076649 -8.601559
v 11.647944 32.793442 -12.543941
v 12.185542 37.631821 -12.543941
v 9.855953 37.631821 -12.543941
v 9.855953 35.481430 -7.705563
v 12.185542 35.481430 -7.705563
v 9.855953 32.793442 -12.543941
v 9.855953 32.076649 -8.601559
v 9.855953 35.481430 -7.705563
v 9.855953 37.631821 -12.543941
v 9.855953 35.481430 -7.705563
v 9.855953 32.076649 -8.601559
v 11.647944 32.076649 -8.601559
v 12.185542 35.481430 -7.705563
v 11.289546 37.631821 -6.759603
v 11.289546 39.644722 -7.565356
v 7.884762 39.644722 -7.565356
v 7.884762 37.631821 -6.759603
v 11.289546 37.631821 -6.759603
v 11.289546 35.520424 -7.663853
v 11.289546 34.714668 -9.676754
v 11.289546 35.618919 -11.788152
v 11.289546 37.631821 -12.593905
v 11.289546 39.743217 -11.689654
v 11.289546 40.548973 -9.676754
v 11.289546 39.644722 -7.565356
v 7.884762 37.631821 -6.759603
v 7.884762 35.520424 -7.663853
v 11.289546 35.520424 -7.663853
v 11.289546 37.631821 -6.759603
v 11.289546 39.644722 -7.565356
v 11.289546 40.548973 -9.676754
v 7.884762 40.548973 -9.676754
v 7.884762 39.644722 -7.565356
v 7.884762 39.644722 -7.565356
v 7.884762 40.548973 -9.676754
v 7.884762 39.743217 -11.689654
v 7.884762 37.631821 -12.593905
v 7.884762 35.618919 -11.788152
v 7.884762 34.714668 -9.676754
v 7.884762 35.520424 -7.663853
v 7.884762 37.631821 -6.759603
v 11.289546 40.548973 -9.676754
v 11.289546 39.743217 -11.689654
v 7.884762 39.743217 -11.689654
v 7.884762 40.548973 -9.676754
v 11.289546 39.743217 -11.689654
v 11.289546 37.631821 -12.593905
v 7.884762 37.631821 -12.593905
v 7.884762 39.743217 -11.689654
v 11.289546 37.631821 -12.593905
v 11.289546 35.618919 -11.788152
v 7.884762 35.618919 -11.788152
v 7.884762 37.631821 -12.593905
v 11.289546 35.618919 -11.788152
v 11.289546 34.714668 -9.676754
v 7.884762 34.714668 -9.676754
v 7.884762 35.618919 -11.788152
v 11.289546 34.714668 -9.676754
v 11.289546 35.520424 -7.663853
v 7.884762 35.520424 -7.663853
v 7.884762 34.714668 -9.676754
vt 0.179121 0.551965
vt 0.329484 0.577284
vt 0.320636 0.633321
vt 0.185019 0.622748
vt 0.204352 0.532030
vt 0.190436 0.532030
vt 0.190436 0.452044
vt 0.204352 0.452044
vt 0.190436 0.448565
vt 0.190436 0.537248
vt 0.204352 0.537248
vt 0.204352 0.448565
vt 0.185019 0.622748
vt 0.320636 0.633321
vt 0.329484 0.577284
vt 0.179121 0.551965
vt 0.115786 0.815845
vt 0.120057 0.831343
vt 0.161903 0.819813
vt 0.156351 0.799665
vt 0.104044 0.832772
vt 0.107240 0.868577
vt 0.123252 0.867148
vt 0.120057 0.831343
vt 0.156351 0.799665
vt 0.122456 0.766389
vt 0.096744 0.785355
vt 0.115786 0.815845
vt 0.182569 0.822923
vt 0.161903 0.819813
vt 0.154834 0.866784
vt 0.175501 0.869894
vt 0.120057 0.831343
vt 0.123252 0.867148
vt 0.154834 0.866784
vt 0.161903 0.819813
vt 0.107654 0.751636
vt 0.085358 0.774007
vt 0.096744 0.785355
vt 0.122456 0.766389
vt 0.014011 0.677079
vt 0.013996 0.696531
vt 0.044542 0.696554
vt 0.044557 0.677102
vt 0.052043 0.764296
vt 0.066625 0.749736
vt 0.066640 0.730285
vt 0.052080 0.715703
vt 0.032628 0.715688
vt 0.018046 0.730248
vt 0.018032 0.749700
vt 0.032591 0.764282
vt 0.044557 0.698475
vt 0.044572 0.677868
vt 0.014027 0.677845
vt 0.014011 0.698452
vt 0.013996 0.678007
vt 0.013981 0.698614
vt 0.044527 0.698637
vt 0.044542 0.678030
vt 0.051391 0.764356
vt 0.065973 0.749796
vt 0.065987 0.730344
vt 0.051428 0.715762
vt 0.031976 0.715748
vt 0.017394 0.730308
vt 0.017379 0.749759
vt 0.031939 0.764341
vt 0.013981 0.677241
vt 0.013966 0.696693
vt 0.044512 0.696716
vt 0.044527 0.677264
vt 0.013966 0.676745
vt 0.013951 0.697351
vt 0.044496 0.697374
vt 0.044512 0.676768
vt 0.013951 0.675978
vt 0.013936 0.695430
vt 0.044482 0.695453
vt 0.044496 0.676001
vt 0.013936 0.676907
vt 0.013920 0.697513
vt 0.044466 0.697536
vt 0.044482 0.676930
vt 0.013920 0.676140
vt 0.013906 0.695592
vt 0.044451 0.695615
vt 0.044466 0.676163
vn 1.000000 0.000000 0.000000
vn 1.000000 0.000000 0.000000
vn 1.000000 0.000000 0.000000
vn 1.000000 0.000000 0.000000
vn 0.000000 -0.077723 0.996975
vn 0.000000 -0.077723 0.996975
vn 0.000000 -0.077723 0.996975
vn 0.000000 -0.077723 0.996975
vn 0.000000 0.166048 -0.986118
vn 0.000000 0.166048 -0.986118
vn 0.000000 0.166048 -0.986118
vn 0.000000 0.166048 -0.986118
vn -1.000000 0.000000 0.000000
vn -1.000000 0.000000 0.000000
vn -1.000000 0.000000 0.000000
vn -1.000000 0.000000 0.000000
vn -0.000000 0.000000 -1.000000
vn -0.000000 0.000000 -1.000000
vn -0.000000 0.000000 -1.000000
vn -0.000000 0.000000 -1.000000
vn 0.000000 -0.983870 -0.178885
vn 0.000000 -0.983870 -0.178885
vn 0.000000 -0.983870 -0.178885
vn 0.000000 -0.983870 -0.178885
vn 0.988245 -0.139700 -0.062089
vn 0.988245 -0.139700 -0.062089
vn 0.988245 -0.139700 -0.062089
vn 0.988245 -0.139700 -0.062089
vn 0.000000 0.913812 0.406138
vn 0.000000 0.913812 0.406138
vn 0.000000 0.913812 0.406138
vn 0.000000 0.913812 0.406138
vn -1.000000 0.000000 0.000000
vn -1.000000 0.000000 0.000000
vn -1.000000 0.000000 0.000000
vn -1.000000 0.000000 0.000000
vn 0.000000 -0.254493 0.967075
vn 0.000000 -0.254493 0.967075
vn 0.000000 -0.254493 0.967075
vn 0.000000 -0.254493 0.967075
vn -0.000000 0.371627 0.928382
vn -0.000000 0.371627 0.928382
vn -0.000000 0.371627 0.928382
vn -0.000000 0.371627 0.928382
vn 1.000000 0.000000 0.000000
vn 1.000000 0.000000 0.000000
vn 1.000000 0.000000 0.000000
vn 1.000000 0.000000 0.000000
vn 1.000000 0.000000 0.000000
vn 1.000000 0.000000 0.000000
vn 1.000000 0.000000 0.000000
vn 1.000000 0.000000 0.000000
vn 0.000000 -0.393686 0.919245
vn 0.000000 -0.393686 0.919245
vn 0.000000 -0.393686 0.919245
vn 0.000000 -0.393686 0.919245
vn 0.000000 0.919245 0.393686
vn 0.000000 0.919245 0.393686
vn 0.000000 0.919245 0.393686
vn 0.000000 0.919245 0.393686
vn -1.000000 0.000000 0.000000
vn -1.000000 0.000000 0.000000
vn -1.000000 0.000000 0.000000
vn -1.000000 0.000000 0.000000
vn -1.000000 0.000000 0.000000
vn -1.000000 0.000000 0.000000
vn -1.000000 0.000000 0.000000
vn -1.000000 0.000000 0.000000
vn 0.000000 0.928382 -0.371627
vn 0.000000 0.928382 -0.371627
vn 0.000000 0.928382 -0.371627
vn 0.000000 0.928382 -0.371627
vn 0.000000 0.393686 -0.919245
vn 0.000000 0.393686 -0.919245
vn 0.000000 0.393686 -0.919245
vn 0.000000 0.393686 -0.919245
vn 0.000000 -0.371627 -0.928382
vn 0.000000 -0.371627 -0.928382
vn 0.000000 -0.371627 -0.928382
vn 0.000000 -0.371627 -0.928382
vn 0.000000 -0.919245 -0.393686
vn 0.000000 -0.919245 -0.393686
vn 0.000000 -0.919245 -0.393686
vn 0.000000 -0.919245 -0.393686
vn 0.000000 -0.928382 0.371627
vn 0.000000 -0.928382 0.371627
vn 0.000000 -0.928382 0.371627
vn 0.000000 -0.928382 0.371627
s off
g polySurface3
usemtl lambert2SG
f 1/1/1 2/2/2 3/3/3 4/4/4
f 5/5/5 6/6/6 7/7/7 8/8/8
f 9/9/9 10/10/10 11/11/11 12/12/12
f 13/13/13 14/14/14 15/15/15 16/16/16
f 17/17/17 18/18/18 19/19/19 20/20/20
f 21/21/21 22/22/22 23/23/23 24/24/24
f 25/25/25 26/26/26 27/27/27 28/28/28
f 29/29/29 30/30/30 31/31/31 32/32/32
f 33/33/33 34/34/34 35/35/35 36/36/36
f 37/37/37 38/38/38 39/39/39 40/40/40
f 41/41/41 42/42/42 43/43/43 44/44/44
f 45/45/45 46/46/46 47/47/47 48/48/48 49/49/49 50/50/50 51/51/51 52/52/52
f 53/53/53 54/54/54 55/55/55 56/56/56
f 57/57/57 58/58/58 59/59/59 60/60/60
f 61/61/61 62/62/62 63/63/63 64/64/64 65/65/65 66/66/66 67/67/67 68/68/68
f 69/69/69 70/70/70 71/71/71 72/72/72
f 73/73/73 74/74/74 75/75/75 76/76/76
f 77/77/77 78/78/78 79/79/79 80/80/80
f 81/81/81 82/82/82 83/83/83 84/84/84
f 85/85/85 86/86/86 87/87/87 88/88/88
