# This file uses centimeters as units for non-parametric coordinates.

mtllib rthigh.mtl
g default
v 10.931148 34.943832 15.052728
v 10.931148 38.136963 14.001683
v 6.809567 38.136963 14.001683
v 6.809567 34.943832 15.052728
v 10.931148 34.943832 15.052728
v 10.931148 31.711695 13.972610
v 10.931148 29.826086 11.322887
v 10.931148 29.905045 7.802804
v 10.931148 31.750702 5.351824
v 10.931148 34.943832 4.300779
v 10.931148 38.175972 5.380899
v 10.931148 40.061581 8.030620
v 10.931148 39.982624 11.550704
v 10.931148 38.136963 14.001683
v 6.809567 31.711695 13.972610
v 10.931148 31.711695 13.972610
v 10.931148 39.982624 11.550704
v 6.809567 39.982624 11.550704
v 6.809567 38.136963 14.001683
v 6.809567 39.982624 11.550704
v 6.809567 40.061581 8.030620
v 6.809567 38.175972 5.380899
v 6.809567 34.943832 4.300779
v 6.809567 31.750702 5.351824
v 6.809567 29.905045 7.802804
v 6.809567 29.826086 11.322887
v 6.809567 31.711695 13.972610
v 6.809567 34.943832 15.052728
v 10.931148 40.061581 8.030620
v 6.809567 40.061581 8.030620
v 10.931148 38.175972 5.380899
v 6.809567 38.175972 5.380899
v 10.931148 34.943832 4.300779
v 6.809567 34.943832 4.300779
v 10.931148 31.750702 5.351824
v 6.809567 31.750702 5.351824
v 10.931148 29.905045 7.802804
v 6.809567 29.905045 7.802804
v 10.931148 29.826086 11.322887
v 6.809567 29.826086 11.322887
v 10.214352 33.868637 4.659178
v 10.214352 32.614243 1.075195
v 10.214352 33.331039 -1.433593
v 10.214352 38.707016 0.000000
v 10.214352 38.169418 5.375974
v 10.214352 33.868637 4.659178
v 7.526364 33.868637 4.659178
v 7.526364 32.614243 1.075195
v 10.214352 32.614243 1.075195
v 7.526364 33.331039 -1.433593
v 10.214352 33.331039 -1.433593
v 7.526364 33.868637 4.659178
v 7.526364 38.169418 5.375974
v 7.526364 38.707016 0.000000
v 7.526364 33.331039 -1.433593
v 7.526364 32.614243 1.075195
v 7.526364 33.331039 -1.433593
v 7.526364 38.707016 0.000000
v 10.214352 38.707016 0.000000
v 10.214352 33.331039 -1.433593
v 7.526364 38.707016 0.000000
v 7.526364 38.169418 5.375974
v 10.214352 38.169418 5.375974
v 10.214352 38.707016 0.000000
v 9.855953 35.475849 -3.453610
v 8.010201 35.475849 -3.453610
v 8.010201 34.764633 -9.676754
v 9.855953 34.764633 -9.676754
v 9.855953 34.764633 -9.676754
v 9.855953 38.886215 -3.763182
v 9.855953 38.707016 -2.508788
v 9.855953 35.475849 -3.453610
v 8.010201 34.764633 -9.676754
v 8.010201 38.886215 -3.763182
v 9.855953 38.886215 -3.763182
v 9.855953 34.764633 -9.676754
v 8.010201 35.475849 -3.453610
v 8.010201 38.707016 -2.508788
v 8.010201 38.886215 -3.763182
v 8.010201 34.764633 -9.676754
v 8.010201 38.886215 -3.763182
v 8.010201 38.707016 -2.508788
v 9.855953 38.707016 -2.508788
v 9.855953 38.886215 -3.763182
v 9.497555 38.169418 -4.479979
v 9.497555 39.244614 -9.676754
v 9.497555 39.961411 -9.676754
v 9.497555 38.707016 -3.942381
v 9.497555 38.169418 -4.479979
v 8.959957 38.169418 -4.479979
v 8.959957 39.244614 -9.676754
v 9.497555 39.244614 -9.676754
v 9.497555 39.961411 -9.676754
v 8.959957 39.961411 -9.676754
v 8.959957 38.707016 -3.942381
v 9.497555 38.707016 -3.942381
v 8.959957 38.169418 -4.479979
v 8.959957 38.707016 -3.942381
v 8.959957 39.961411 -9.676754
v 8.959957 39.244614 -9.676754
v 7.884762 34.406235 -3.763182
v 7.884762 38.707016 -2.508788
v 9.855953 38.707016 -2.508788
v 9.855953 34.406235 -3.763182
v 7.884762 34.406235 -3.763182
v 7.884762 33.868637 -2.687987
v 7.884762 34.406235 -1.075195
v 7.884762 38.348618 0.000000
v 7.884762 38.707016 -2.508788
v 9.855953 34.406235 -3.763182
v 9.855953 33.868637 -2.687987
v 7.884762 33.868637 -2.687987
v 7.884762 34.406235 -3.763182
v 9.855953 38.707016 -2.508788
v 9.855953 38.348618 0.000000
v 9.855953 34.406235 -1.075195
v 9.855953 33.868637 -2.687987
v 9.855953 34.406235 -3.763182
v 9.855953 38.707016 -2.508788
v 7.884762 38.707016 -2.508788
v 7.884762 38.348618 0.000000
v 9.855953 38.348618 0.000000
v 7.884762 34.406235 -1.075195
v 7.884762 33.868637 -2.687987
v 9.855953 33.868637 -2.687987
v 9.855953 34.406235 -1.075195
vt 0.014837 0.580311
vt 0.014837 0.606358
vt 0.046771 0.606358
vt 0.046771 0.580311
vt 0.112756 0.635078
vt 0.137981 0.627273
vt 0.153047 0.607075
vt 0.153047 0.579795
vt 0.139176 0.560488
vt 0.114624 0.551792
vt 0.089400 0.559597
vt 0.074333 0.579795
vt 0.074333 0.607075
vt 0.088204 0.626382
vt 0.046771 0.607383
vt 0.046771 0.580979
vt 0.014837 0.580979
vt 0.014837 0.607383
vt 0.014837 0.579286
vt 0.014837 0.603058
vt 0.046771 0.603058
vt 0.046771 0.579286
vt 0.138686 0.626382
vt 0.152557 0.607075
vt 0.152557 0.579795
vt 0.137490 0.559597
vt 0.112266 0.551792
vt 0.087714 0.560488
vt 0.073843 0.579795
vt 0.073843 0.607075
vt 0.088910 0.627273
vt 0.114134 0.635078
vt 0.014837 0.580261
vt 0.014837 0.607541
vt 0.046771 0.607541
vt 0.046771 0.580261
vt 0.014837 0.581894
vt 0.014837 0.607092
vt 0.046771 0.607092
vt 0.046771 0.581894
vt 0.014837 0.580020
vt 0.014837 0.606424
vt 0.046771 0.606424
vt 0.046771 0.580020
vt 0.014837 0.579352
vt 0.014837 0.605399
vt 0.046771 0.605399
vt 0.046771 0.579352
vt 0.014837 0.581176
vt 0.014837 0.604949
vt 0.046771 0.604949
vt 0.046771 0.581176
vt 0.014837 0.579795
vt 0.014837 0.607075
vt 0.046771 0.607075
vt 0.046771 0.579795
vt 0.014837 0.580003
vt 0.014837 0.605201
vt 0.046771 0.605201
vt 0.046771 0.580003
vt 0.527872 0.707927
vt 0.507118 0.648630
vt 0.518977 0.607123
vt 0.607922 0.630841
vt 0.599028 0.719786
vt 0.527872 0.707927
vt 0.509066 0.707927
vt 0.488312 0.648630
vt 0.507118 0.648630
vt 0.507118 0.648630
vt 0.488312 0.648630
vt 0.500171 0.607123
vt 0.518977 0.607123
vt 0.527872 0.707927
vt 0.599028 0.719786
vt 0.607922 0.630841
vt 0.518977 0.607123
vt 0.507118 0.648630
vt 0.523536 0.589457
vt 0.612481 0.613176
vt 0.607922 0.630841
vt 0.518977 0.607123
vt 0.622992 0.633833
vt 0.614098 0.722777
vt 0.599028 0.719786
vt 0.607922 0.630841
vt 0.908271 0.132297
vt 0.886812 0.132297
vt 0.873001 0.006254
vt 0.893866 0.006254
vt 0.893866 0.006254
vt 0.977345 0.126027
vt 0.973715 0.151433
vt 0.908271 0.132297
vt 0.916936 0.006254
vt 0.998209 0.126027
vt 0.977345 0.126027
vt 0.893866 0.006254
vt 0.908271 0.132297
vt 0.973715 0.151433
vt 0.977345 0.126027
vt 0.893866 0.006254
vt 0.998209 0.126027
vt 0.992765 0.151433
vt 0.973715 0.151433
vt 0.977345 0.126027
vt 0.458862 0.212821
vt 0.458932 0.140776
vt 0.449404 0.138795
vt 0.450231 0.218481
vt 0.458862 0.212821
vt 0.466160 0.212828
vt 0.466230 0.140783
vt 0.458932 0.140776
vt 0.449404 0.138795
vt 0.442106 0.138871
vt 0.442933 0.218557
vt 0.450231 0.218481
vt 0.434186 0.213077
vt 0.442933 0.218557
vt 0.442106 0.138871
vt 0.432622 0.141049
vt 0.182799 0.671412
vt 0.222991 0.671476
vt 0.223019 0.653792
vt 0.182827 0.653728
vt 0.175345 0.687085
vt 0.163620 0.710536
vt 0.175345 0.745713
vt 0.261332 0.769164
vt 0.269149 0.714445
vt 0.182827 0.653728
vt 0.172042 0.653711
vt 0.172014 0.671395
vt 0.182799 0.671412
vt 0.269149 0.714445
vt 0.261332 0.769164
vt 0.175345 0.745713
vt 0.163620 0.710536
vt 0.175345 0.687085
vt 0.223019 0.653792
vt 0.222991 0.671476
vt 0.245726 0.671512
vt 0.245754 0.653828
vt 0.156762 0.671371
vt 0.172014 0.671395
vt 0.172042 0.653711
vt 0.156790 0.653687
vn -0.000000 0.312656 0.949866
vn -0.000000 0.312656 0.949866
vn -0.000000 0.312656 0.949866
vn -0.000000 0.312656 0.949866
vn 1.000000 0.000000 0.000000
vn 1.000000 0.000000 0.000000
vn 1.000000 0.000000 0.000000
vn 1.000000 0.000000 0.000000
vn 1.000000 0.000000 0.000000
vn 1.000000 0.000000 0.000000
vn 1.000000 0.000000 0.000000
vn 1.000000 0.000000 0.000000
vn 1.000000 0.000000 0.000000
vn 1.000000 0.000000 0.000000
vn 0.000000 -0.002262 0.999997
vn 0.000000 -0.595118 0.803639
vn 0.000000 -0.595118 0.803639
vn 0.000000 -0.002262 0.999997
vn 0.000000 0.582397 0.812905
vn 0.000000 0.944761 0.327760
vn 0.000000 0.944761 0.327760
vn 0.000000 0.582397 0.812905
vn -1.000000 0.000000 0.000000
vn -1.000000 0.000000 0.000000
vn -1.000000 0.000000 0.000000
vn -1.000000 0.000000 0.000000
vn -1.000000 0.000000 0.000000
vn -1.000000 0.000000 0.000000
vn -1.000000 0.000000 0.000000
vn -1.000000 0.000000 0.000000
vn -1.000000 0.000000 0.000000
vn -1.000000 0.000000 0.000000
vn 0.000000 0.944761 0.327760
vn 0.000000 0.955917 -0.293637
vn 0.000000 0.955917 -0.293637
vn 0.000000 0.944761 0.327760
vn 0.000000 0.955917 -0.293637
vn 0.000000 0.595118 -0.803639
vn 0.000000 0.595118 -0.803639
vn 0.000000 0.955917 -0.293637
vn 0.000000 0.595118 -0.803639
vn 0.000000 0.002263 -0.999997
vn 0.000000 0.002263 -0.999997
vn 0.000000 0.595118 -0.803639
vn 0.000000 0.002263 -0.999997
vn 0.000000 -0.582397 -0.812905
vn 0.000000 -0.582397 -0.812905
vn 0.000000 0.002263 -0.999997
vn 0.000000 -0.582397 -0.812905
vn 0.000000 -0.944761 -0.327760
vn 0.000000 -0.944761 -0.327760
vn 0.000000 -0.582397 -0.812905
vn 0.000000 -0.944761 -0.327760
vn 0.000000 -0.955917 0.293637
vn 0.000000 -0.955917 0.293637
vn 0.000000 -0.944761 -0.327760
vn 0.000000 -0.955917 0.293637
vn 0.000000 -0.595118 0.803639
vn 0.000000 -0.595118 0.803639
vn 0.000000 -0.955917 0.293637
vn 1.000000 0.000000 0.000000
vn 1.000000 0.000000 0.000000
vn 1.000000 0.000000 0.000000
vn 1.000000 0.000000 0.000000
vn 1.000000 0.000000 0.000000
vn 0.000000 -0.943858 0.330350
vn 0.000000 -0.943858 0.330350
vn 0.000000 -0.999574 0.029183
vn 0.000000 -0.999574 0.029183
vn 0.000000 -0.999574 0.029183
vn 0.000000 -0.999574 0.029183
vn 0.000000 -0.961524 -0.274721
vn 0.000000 -0.961524 -0.274721
vn -1.000000 0.000000 0.000000
vn -1.000000 0.000000 0.000000
vn -1.000000 0.000000 0.000000
vn -1.000000 0.000000 0.000000
vn -1.000000 0.000000 0.000000
vn 0.000000 0.257663 -0.966235
vn 0.000000 0.257663 -0.966235
vn 0.000000 0.257663 -0.966235
vn 0.000000 0.257663 -0.966235
vn 0.000000 0.995037 0.099504
vn 0.000000 0.995037 0.099504
vn 0.000000 0.995037 0.099504
vn 0.000000 0.995037 0.099504
vn -0.000000 -0.993533 0.113547
vn -0.000000 -0.993533 0.113547
vn -0.000000 -0.993533 0.113547
vn -0.000000 -0.993533 0.113547
vn 1.000000 0.000000 0.000000
vn 1.000000 0.000000 0.000000
vn 1.000000 0.000000 0.000000
vn 1.000000 0.000000 0.000000
vn 0.000000 0.820398 -0.571793
vn 0.000000 0.820398 -0.571793
vn 0.000000 0.820398 -0.571793
vn 0.000000 0.820398 -0.571793
vn -1.000000 0.000000 0.000000
vn -1.000000 0.000000 0.000000
vn -1.000000 0.000000 0.000000
vn -1.000000 0.000000 0.000000
vn 0.000000 0.989949 0.141421
vn 0.000000 0.989949 0.141421
vn 0.000000 0.989949 0.141421
vn 0.000000 0.989949 0.141421
vn 1.000000 -0.000000 0.000000
vn 1.000000 -0.000000 0.000000
vn 1.000000 -0.000000 0.000000
vn 1.000000 -0.000000 0.000000
vn 0.000000 -0.979260 -0.202606
vn 0.000000 -0.979260 -0.202606
vn 0.000000 -0.979260 -0.202606
vn 0.000000 -0.979260 -0.202606
vn 0.000000 0.976900 0.213697
vn 0.000000 0.976900 0.213697
vn 0.000000 0.976900 0.213697
vn 0.000000 0.976900 0.213697
vn -1.000000 0.000000 0.000000
vn -1.000000 0.000000 0.000000
vn -1.000000 0.000000 0.000000
vn -1.000000 0.000000 0.000000
vn -0.000000 0.280000 -0.960000
vn -0.000000 0.280000 -0.960000
vn -0.000000 0.280000 -0.960000
vn -0.000000 0.280000 -0.960000
vn -1.000000 0.000000 0.000000
vn -1.000000 0.000000 0.000000
vn -1.000000 0.000000 0.000000
vn -1.000000 0.000000 0.000000
vn -1.000000 0.000000 0.000000
vn 0.000000 -0.894427 -0.447214
vn 0.000000 -0.894427 -0.447214
vn 0.000000 -0.894427 -0.447214
vn 0.000000 -0.894427 -0.447214
vn 1.000000 0.000000 0.000000
vn 1.000000 0.000000 0.000000
vn 1.000000 0.000000 0.000000
vn 1.000000 0.000000 0.000000
vn 1.000000 0.000000 0.000000
vn 0.000000 0.989949 0.141421
vn 0.000000 0.989949 0.141421
vn 0.000000 0.989949 0.141421
vn 0.000000 0.989949 0.141421
vn 0.000000 -0.948683 0.316228
vn 0.000000 -0.948683 0.316228
vn 0.000000 -0.948683 0.316228
vn 0.000000 -0.948683 0.316228
s off
g polySurface2
usemtl lambert2SG
f 1/1/1 2/2/2 3/3/3 4/4/4
f 5/5/5 6/6/6 7/7/7 8/8/8 9/9/9 10/10/10 11/11/11 12/12/12 13/13/13 14/14/14
f 4/15/15 15/16/16 16/17/17 1/18/18
f 2/19/19 17/20/20 18/21/21 3/22/22
f 19/23/23 20/24/24 21/25/25 22/26/26 23/27/27 24/28/28 25/29/29 26/30/30 27/31/31 28/32/32
f 17/33/33 29/34/34 30/35/35 18/36/36
f 29/37/37 31/38/38 32/39/39 30/40/40
f 31/41/41 33/42/42 34/43/43 32/44/44
f 33/45/45 35/46/46 36/47/47 34/48/48
f 35/49/49 37/50/50 38/51/51 36/52/52
f 37/53/53 39/54/54 40/55/55 38/56/56
f 39/57/57 16/58/58 15/59/59 40/60/60
f 41/61/61 42/62/62 43/63/63 44/64/64 45/65/65
f 46/66/66 47/67/67 48/68/68 49/69/69
f 49/70/70 48/71/71 50/72/72 51/73/73
f 52/74/74 53/75/75 54/76/76 55/77/77 56/78/78
f 57/79/79 58/80/80 59/81/81 60/82/82
f 61/83/83 62/84/84 63/85/85 64/86/86
f 65/87/87 66/88/88 67/89/89 68/90/90
f 69/91/91 70/92/92 71/93/93 72/94/94
f 73/95/95 74/96/96 75/97/97 76/98/98
f 77/99/99 78/100/100 79/101/101 80/102/102
f 81/103/103 82/104/104 83/105/105 84/106/106
f 85/107/107 86/108/108 87/109/109 88/110/110
f 89/111/111 90/112/112 91/113/113 92/114/114
f 93/115/115 94/116/116 95/117/117 96/118/118
f 97/119/119 98/120/120 99/121/121 100/122/122
f 101/123/123 102/124/124 103/125/125 104/126/126
f 105/127/127 106/128/128 107/129/129 108/130/130 109/131/131
f 110/132/132 111/133/133 112/134/134 113/135/135
f 114/136/136 115/137/137 116/138/138 117/139/139 118/140/140
f 119/141/141 120/142/142 121/143/143 122/144/144
f 123/145/145 124/146/146 125/147/147 126/148/148
